<svg width="549" height="438" viewBox="0 0 549 438" fill="none" xmlns="http://www.w3.org/2000/svg">
<path d="M10.8286 374.357C21.356 341.14 55.6762 265.626 108.738 229.31C94.672 263.549 55.3971 340.493 10.8286 374.357Z" stroke="#011D6E" stroke-opacity="0.21" stroke-width="6"/>
<path d="M291.47 176.925C292.033 142.084 303.267 59.9015 343.692 9.89855C340.03 46.7328 324.46 131.706 291.47 176.925Z" stroke="#011D6E" stroke-opacity="0.21" stroke-width="6"/>
<path d="M34.5685 381.75C62.755 361.262 135.193 320.853 199.453 323.115C167.812 342.324 90.5372 380.944 34.5685 381.75Z" stroke="#011D6E" stroke-opacity="0.21" stroke-width="6"/>
<path d="M134.666 303.415C158.272 286.257 218.938 252.415 272.754 254.309C246.255 270.397 181.539 302.74 134.666 303.415Z" stroke="#011D6E" stroke-opacity="0.21" stroke-width="6"/>
<path d="M160.221 251.943C175.801 227.268 219.635 173.377 270.332 155.22C251.668 179.972 203.516 233.97 160.221 251.943Z" stroke="#011D6E" stroke-opacity="0.21" stroke-width="6"/>
<path d="M125.868 266.39C124.254 247.768 125.731 203.298 144.553 174.395C144.624 194.251 140.986 240.448 125.868 266.39Z" stroke="#011D6E" stroke-opacity="0.21" stroke-width="6"/>
<path d="M300.568 223.75C328.755 203.262 401.193 162.853 465.453 165.115C433.812 184.324 356.537 222.944 300.568 223.75Z" stroke="#011D6E" stroke-opacity="0.21" stroke-width="6"/>
<path d="M400.666 145.415C424.272 128.257 484.938 94.415 538.754 96.3091C512.255 112.397 447.539 144.74 400.666 145.415Z" stroke="#011D6E" stroke-opacity="0.21" stroke-width="6"/>
<path d="M392.221 110.943C407.801 86.2676 451.635 32.3773 502.332 14.2205C483.668 38.9724 435.516 92.9697 392.221 110.943Z" stroke="#011D6E" stroke-opacity="0.21" stroke-width="6"/>
<path d="M357.868 125.39C356.254 106.768 357.731 62.2982 376.553 33.3947C376.624 53.2506 372.986 99.448 357.868 125.39Z" stroke="#011D6E" stroke-opacity="0.21" stroke-width="6"/>
<path d="M176.428 424.424C142.187 430.884 59.4249 436.42 2.30933 406.885C39.1267 403.059 125.495 401.209 176.428 424.424Z" stroke="#011D6E" stroke-opacity="0.21" stroke-width="6"/>
</svg>
